 <svg  version="1.0" xmlns="http://www.w3.org/2000/svg"  width="200.000000pt" height="200.000000pt" viewBox="0 0 200.000000 200.000000"  preserveAspectRatio="xMidYMid meet">  <g transform="translate(0.000000,200.000000) scale(0.100000,-0.100000)" fill="#000000" stroke="none"> <path d="M1198 1613 c7 -3 16 -2 19 1 4 3 -2 6 -13 5 -11 0 -14 -3 -6 -6z"/> <path d="M1248 1543 c7 -3 16 -2 19 1 4 3 -2 6 -13 5 -11 0 -14 -3 -6 -6z"/> <path d="M1188 1533 c6 -2 18 -2 25 0 6 3 1 5 -13 5 -14 0 -19 -2 -12 -5z"/> <path d="M1298 1521 c3 -8 1 -12 -4 -8 -6 3 -11 -10 -12 -31 -1 -20 -4 -50 -7 -67 -4 -24 -3 -26 4 -10 5 11 10 30 10 43 1 13 8 37 17 53 13 27 17 29 32 17 15 -12 16 -11 4 4 -16 21 -52 20 -44 -1z"/> <path d="M1368 1533 c7 -3 16 -2 19 1 4 3 -2 6 -13 5 -11 0 -14 -3 -6 -6z"/> <path d="M1498 1533 c18 -7 4 -23 -16 -17 -14 5 -15 4 -2 -5 12 -8 8 -11 -17 -11 -18 0 -33 -5 -33 -11 0 -6 13 -9 29 -7 31 3 61 -16 61 -38 0 -20 -17 -17 -25 4 -6 16 -7 16 -21 -2 -8 -11 -14 -35 -14 -53 0 -18 -5 -33 -11 -33 -6 0 -9 10 -7 23 3 20 -26 66 -36 56 -2 -2 -1 -24 4 -49 6 -31 5 -50 -3 -60 -10 -13 -10 -13 4 -3 19 15 33 5 19 -12 -8 -9 -6 -14 4 -18 11 -4 13 -1 9 10 -5 13 -3 14 15 4 15 -8 23 -8 28 1 4 7 3 8 -4 4 -7 -4 -12 -3 -12 3 0 5 -9 13 -20 16 -11 3 -20 11 -20 16 0 6 4 8 9 5 14 -9 41 4 41 20 0 17 12 18 29 2 11 -10 12 -10 7 -1 -4 7 1 24 10 38 13 20 14 28 4 40 -7 9 -11 18 -8 20 8 8 25 -17 32 -48 5 -20 3 -27 -4 -22 -7 4 -9 -2 -4 -19 4 -17 2 -26 -6 -26 -6 0 -8 -5 -4 -11 4 -8 9 -7 15 2 8 12 10 12 18 1 16 -26 22 18 6 48 -8 16 -15 35 -15 43 0 7 -12 24 -27 38 -14 13 -23 18 -19 12 4 -7 2 -13 -3 -13 -6 0 -11 7 -11 15 0 8 7 15 15 15 9 0 12 6 9 15 -4 8 -14 15 -23 14 -10 0 -11 -2 -3 -6z m7 -112 c7 -12 -12 -24 -25 -16 -11 7 -4 25 10 25 5 0 11 -4 15 -9z m-78 -48 c-3 -10 -5 -4 -5 12 0 17 2 24 5 18 2 -7 2 -21 0 -30z m153 -6 c0 -5 -4 -5 -10 -2 -5 3 -10 14 -10 23 0 15 2 15 10 2 5 -8 10 -19 10 -23z"/> <path d="M1226 1499 c-4 -22 -10 -30 -21 -25 -37 14 -1 -66 61 -137 27 -30 57 -65 67 -78 9 -13 17 -18 17 -12 0 6 3 20 6 30 5 15 4 15 -5 3 -9 -13 -11 -12 -11 4 0 10 -8 26 -18 35 -14 12 -18 26 -14 53 2 21 7 36 11 34 3 -2 4 14 1 37 l-5 42 -3 -37 c-2 -21 -8 -38 -14 -38 -5 0 -8 -7 -4 -15 3 -8 3 -22 -1 -31 -5 -13 -11 -9 -35 18 -32 38 -47 80 -30 86 7 2 12 12 12 22 0 10 5 22 10 25 6 4 10 -8 10 -30 0 -22 -4 -34 -10 -30 -12 8 -13 -5 -1 -23 10 -17 21 16 21 66 0 25 -4 32 -19 32 -13 0 -20 -10 -25 -31z"/> <path d="M730 1509 c37 -7 24 -12 -42 -18 -10 0 -18 -5 -18 -10 0 -5 26 -7 58 -5 31 2 75 -2 97 -7 39 -11 52 -22 169 -148 29 -31 60 -54 77 -58 29 -5 51 -23 30 -23 -6 0 -11 -5 -11 -11 0 -8 12 -10 36 -6 25 4 44 1 62 -11 14 -9 23 -11 19 -4 -5 6 -4 12 2 12 21 0 11 15 -25 38 -19 13 -41 21 -47 18 -8 -3 -8 -5 1 -5 15 -1 72 -51 57 -51 -6 0 -19 7 -29 15 -24 18 -39 19 -31 3 4 -7 -2 -3 -13 10 -11 12 -24 22 -29 22 -5 0 -15 9 -23 20 -8 11 -18 20 -23 20 -8 0 -29 20 -61 57 -16 20 -17 25 -5 40 13 16 12 17 -2 5 -14 -10 -20 -10 -33 3 -18 19 -22 40 -4 29 7 -4 8 -3 4 5 -4 6 -11 9 -16 6 -4 -3 -14 3 -21 12 -12 14 -12 16 1 8 8 -4 5 3 -8 17 -21 24 -29 25 -115 25 -60 -1 -80 -3 -57 -8z m158 -12 c6 -7 7 -18 3 -26 -6 -9 -11 -10 -15 -2 -4 6 -2 11 4 11 6 0 8 5 5 10 -3 6 -17 7 -30 4 -12 -3 -26 -1 -29 5 -10 16 49 14 62 -2z"/> <path d="M918 1513 c7 -3 16 -2 19 1 4 3 -2 6 -13 5 -11 0 -14 -3 -6 -6z"/> <path d="M1148 1513 c36 -5 38 -10 18 -39 -8 -11 -16 -31 -19 -44 -4 -25 -4 -25 -6 2 -1 36 -21 47 -21 12 0 -39 33 -85 87 -124 26 -18 61 -46 77 -62 15 -15 32 -28 37 -28 20 0 6 21 -43 65 -29 26 -63 61 -75 78 -28 37 -31 102 -6 129 15 17 14 18 -33 16 -36 -1 -41 -2 -16 -5z"/> <path d="M1352 1498 c-17 -37 -22 -134 -7 -154 7 -10 10 -25 7 -33 -3 -9 -1 -12 6 -7 7 4 12 13 12 21 0 7 4 15 9 17 5 2 12 17 16 33 l6 30 -15 -33 c-9 -18 -20 -31 -26 -27 -12 7 -6 143 7 156 4 4 28 9 53 12 l45 4 -51 1 c-44 2 -52 -1 -62 -20z"/> <path d="M950 1500 c0 -5 -8 -7 -17 -3 -15 5 -16 3 -6 -7 16 -17 53 -24 53 -10 0 6 -6 10 -12 11 -7 0 -4 4 7 9 19 8 19 9 -2 9 -13 1 -23 -3 -23 -9z"/> <path d="M1035 1500 l-40 -7 35 -1 c19 0 46 4 60 8 32 10 2 10 -55 0z"/> <path d="M1105 1490 c-11 -5 -42 -9 -68 -9 -27 -1 -46 -5 -43 -10 3 -5 0 -14 -8 -20 -10 -8 -16 -9 -19 -1 -3 6 -4 5 -3 -2 2 -7 8 -13 14 -13 6 0 24 -19 41 -42 17 -24 36 -43 41 -43 6 0 -1 12 -15 27 -14 15 -25 33 -25 40 0 7 -4 13 -10 13 -5 0 -10 6 -10 14 0 8 14 16 38 18 46 6 48 4 28 -26 -14 -22 -14 -25 -1 -20 11 5 15 -1 15 -21 0 -17 4 -24 12 -19 8 5 9 2 5 -10 -5 -14 -3 -17 8 -12 8 3 15 1 15 -5 0 -12 49 -59 61 -59 20 0 6 25 -30 56 -49 42 -65 84 -45 113 9 12 24 21 35 21 11 0 17 5 14 10 -7 12 -23 12 -50 0z"/> <path d="M1398 1493 c10 -4 10 -8 1 -19 -7 -8 -9 -17 -5 -21 8 -8 12 -3 20 25 6 17 4 22 -11 21 -11 0 -13 -3 -5 -6z"/> <path d="M611 1465 c-41 -18 -44 -18 -35 -2 5 7 -2 5 -16 -4 -14 -9 -23 -19 -20 -22 3 -3 -6 -17 -19 -30 -13 -15 -20 -31 -16 -38 5 -7 3 -10 -6 -7 -8 3 -13 11 -11 18 3 11 0 11 -12 0 -9 -7 -16 -18 -16 -24 0 -6 5 -4 10 4 8 13 11 11 16 -7 4 -13 10 -20 15 -17 5 3 9 -3 10 -13 0 -15 2 -14 9 3 5 12 14 26 22 30 9 6 7 10 -9 14 -16 4 -20 9 -14 19 8 12 12 12 26 -2 9 -10 24 -16 33 -16 15 1 15 2 -1 6 -24 6 -11 23 18 23 13 0 27 5 31 11 7 12 3 11 -63 -7 -14 -4 -23 -2 -23 5 0 6 7 11 15 11 8 0 15 4 15 8 0 5 18 14 40 21 21 6 42 16 45 21 8 14 -4 12 -44 -5z m-41 -19 c0 -2 -7 -7 -16 -10 -8 -3 -12 -2 -9 4 6 10 25 14 25 6z m-40 -90 c0 -3 -4 -8 -10 -11 -5 -3 -10 -1 -10 4 0 6 5 11 10 11 6 0 10 -2 10 -4z"/> <path d="M740 1451 c0 -5 -9 -7 -20 -4 -25 7 -79 -18 -73 -33 2 -7 0 -15 -6 -19 -13 -8 -15 -131 -2 -139 5 -3 11 4 15 17 8 32 6 45 -4 22 -7 -15 -9 -9 -8 25 1 25 4 47 8 50 3 3 10 14 16 25 17 31 55 30 102 -5 49 -35 60 -17 12 20 -40 30 -33 35 21 13 29 -11 75 -48 132 -105 48 -48 95 -88 102 -88 24 0 17 -18 -7 -23 -21 -4 -21 -4 -2 -6 11 0 31 10 43 23 l22 24 -36 6 c-28 6 -55 26 -113 86 -42 43 -93 87 -112 99 -36 21 -90 28 -90 12z"/> <path d="M1373 1438 c1 -16 5 -28 9 -28 10 0 9 9 -2 35 -8 17 -8 16 -7 -7z"/> <path d="M1430 1451 c0 -5 5 -13 10 -16 6 -3 10 -2 10 4 0 5 -4 13 -10 16 -5 3 -10 2 -10 -4z"/> <path d="M1592 1420 c0 -14 2 -19 5 -12 2 6 2 18 0 25 -3 6 -5 1 -5 -13z"/> <path d="M499 1413 c-13 -16 -12 -17 4 -4 9 7 17 15 17 17 0 8 -8 3 -21 -13z"/> <path d="M670 1371 c-16 -30 -13 -43 22 -97 28 -41 33 -59 33 -111 1 -40 -3 -59 -10 -55 -5 3 -4 -2 4 -11 7 -9 17 -15 21 -12 11 7 51 -45 44 -56 -3 -5 0 -8 7 -7 7 2 13 -2 14 -9 0 -24 23 -34 66 -30 l44 4 -47 1 c-67 3 -69 20 -3 20 61 -1 76 6 55 25 -10 10 -11 9 -5 -3 8 -13 7 -13 -9 -1 -10 9 -20 11 -24 5 -22 -30 -61 -13 -111 48 -31 38 -40 56 -35 72 13 40 10 61 -15 99 -21 32 -22 40 -10 48 15 9 52 2 57 -12 6 -15 32 -10 32 5 0 8 -17 21 -37 29 -33 13 -41 14 -60 1 -19 -12 -23 -12 -23 -1 0 19 21 37 42 37 10 0 36 -12 58 -26 33 -22 39 -31 33 -48 -4 -12 -6 -58 -5 -103 0 -47 -3 -83 -9 -83 -14 0 -11 -12 9 -37 15 -18 22 -20 57 -13 l40 9 -37 -2 c-20 -1 -40 2 -44 6 -8 8 -14 157 -6 171 2 4 7 3 11 -2 4 -6 5 21 3 61 -2 52 0 68 7 57 6 -8 11 -25 11 -37 0 -13 4 -23 9 -23 11 0 -3 58 -17 72 -6 6 -16 2 -26 -7 -9 -9 -16 -13 -16 -8 0 15 -57 43 -89 43 -20 0 -34 -7 -41 -19z"/> <path d="M613 1325 c0 -27 2 -38 4 -22 2 15 2 37 0 50 -2 12 -4 0 -4 -28z"/> <path d="M870 1344 c13 -34 13 -84 -1 -84 -5 0 -7 -4 -4 -10 23 -37 42 33 24 85 -7 19 -17 35 -21 35 -4 0 -3 -12 2 -26z"/> <path d="M1011 1357 c2 -1 15 -11 29 -22 l25 -20 -19 23 c-11 12 -24 22 -29 22 -6 0 -8 -1 -6 -3z"/> <path d="M1476 1338 c7 -11 34 -10 34 1 0 6 -9 9 -19 8 -11 0 -17 -5 -15 -9z"/> <path d="M470 1289 c0 -31 -2 -72 -5 -90 -4 -27 -3 -29 3 -9 11 33 25 10 16 -26 -5 -18 -3 -25 3 -21 11 7 23 -23 23 -60 0 -13 5 -23 11 -23 7 0 8 13 3 38 -5 20 -8 62 -8 92 1 35 -1 46 -5 30 -6 -22 -8 -23 -14 -7 -4 10 -7 37 -7 60 0 23 -5 49 -10 57 -7 11 -10 -1 -10 -41z"/> <path d="M1521 1316 c-9 -11 -9 -16 0 -22 8 -4 9 -3 5 4 -4 7 -1 12 8 12 9 0 16 5 16 10 0 14 -16 12 -29 -4z"/> <path d="M1591 1314 c0 -11 3 -14 6 -6 3 7 2 16 -1 19 -3 4 -6 -2 -5 -13z"/> <path d="M502 1280 c0 -14 2 -19 5 -12 2 6 2 18 0 25 -3 6 -5 1 -5 -13z"/> <path d="M730 1281 c0 -11 29 -35 35 -29 2 2 -4 12 -15 21 -11 9 -20 13 -20 8z"/> <path d="M925 1280 c-3 -5 -1 -10 4 -10 6 0 11 5 11 10 0 6 -2 10 -4 10 -3 0 -8 -4 -11 -10z"/> <path d="M616 1243 c-4 -5 -13 -8 -19 -8 -7 -1 -11 -7 -9 -14 2 -9 -5 -11 -20 -6 -18 5 -20 4 -8 -4 10 -7 11 -11 3 -11 -15 0 -17 -36 -3 -45 6 -4 10 5 10 19 0 16 6 26 15 26 8 0 15 4 15 9 0 5 7 12 16 15 11 4 14 1 10 -12 -8 -24 9 -50 17 -27 4 10 3 14 -4 9 -7 -4 -9 0 -5 12 6 22 -7 48 -18 37z"/> <path d="M905 1240 c-3 -5 6 -12 20 -16 35 -9 41 0 10 14 -14 7 -27 8 -30 2z"/> <path d="M653 1206 c1 -19 5 -32 10 -29 9 5 5 63 -4 63 -4 0 -7 -15 -6 -34z"/> <path d="M687 1229 c7 -7 15 -10 18 -7 3 3 -2 9 -12 12 -14 6 -15 5 -6 -5z"/> <path d="M770 1209 c0 -11 4 -18 10 -14 5 3 7 12 3 20 -7 21 -13 19 -13 -6z"/> <path d="M1310 1217 c0 -3 11 -32 25 -64 29 -65 71 -123 88 -123 7 0 4 5 -5 11 -10 5 -18 15 -18 21 0 7 4 7 13 1 16 -13 68 -23 61 -12 -3 5 -16 9 -29 9 -20 0 -31 11 -54 58 -17 31 -30 53 -31 49 0 -4 9 -26 21 -48 11 -23 18 -43 16 -45 -6 -6 -39 50 -57 96 -13 34 -30 61 -30 47z"/> <path d="M421 1194 c0 -11 3 -14 6 -6 3 7 2 16 -1 19 -3 4 -6 -2 -5 -13z"/> <path d="M928 1203 c7 -3 16 -2 19 1 4 3 -2 6 -13 5 -11 0 -14 -3 -6 -6z"/> <path d="M968 1203 c6 -2 18 -2 25 0 6 3 1 5 -13 5 -14 0 -19 -2 -12 -5z"/> <path d="M1102 1203 l37 -4 4 -57 3 -57 2 63 2 62 -42 -2 -43 -1 37 -4z"/> <path d="M1160 1206 c0 -2 11 -15 24 -29 20 -21 23 -34 20 -69 l-3 -43 11 42 c9 35 8 45 -8 67 -16 22 -44 42 -44 32z"/> <path d="M1224 1202 c3 -6 0 -13 -6 -16 -7 -3 -4 -4 7 -1 21 5 51 -28 41 -44 -3 -4 1 -8 9 -8 20 0 -8 53 -36 68 -13 6 -19 7 -15 1z"/> <path d="M1276 1187 c3 -10 9 -15 12 -12 3 3 0 11 -7 18 -10 9 -11 8 -5 -6z"/> <path d="M600 1177 c0 -10 -12 -35 -26 -57 -20 -30 -23 -43 -15 -57 9 -16 10 -16 11 5 0 29 18 64 29 58 5 -3 17 4 27 17 l19 22 -22 -19 c-24 -20 -32 -9 -11 12 9 9 9 15 0 24 -9 9 -12 8 -12 -5z"/> <path d="M1003 1183 c15 -2 37 -2 50 0 12 2 0 4 -28 4 -27 0 -38 -2 -22 -4z"/> <path d="M532 1160 c0 -14 2 -19 5 -12 2 6 2 18 0 25 -3 6 -5 1 -5 -13z"/> <path d="M696 1153 c-4 -9 -3 -20 1 -24 4 -4 9 3 9 17 2 28 -1 31 -10 7z"/> <path d="M1160 1133 c0 -21 5 -45 10 -53 7 -11 10 -2 10 32 0 26 -4 50 -10 53 -6 4 -10 -9 -10 -32z"/> <path d="M998 1143 c6 -2 18 -2 25 0 6 3 1 5 -13 5 -14 0 -19 -2 -12 -5z"/> <path d="M1324 1086 c28 -38 33 -51 14 -40 -7 4 3 -9 21 -29 30 -31 41 -37 77 -37 24 0 45 3 47 8 3 4 -15 5 -40 3 -26 -2 -50 2 -56 9 -9 8 -8 10 6 5 10 -4 17 -2 17 4 0 6 -4 11 -10 11 -5 0 -26 23 -47 50 -20 28 -41 50 -46 50 -5 0 2 -15 17 -34z m47 -63 c13 -16 12 -17 -3 -4 -17 13 -22 21 -14 21 2 0 10 -8 17 -17z"/> <path d="M426 1101 c-4 -5 4 -7 16 -4 23 5 23 5 3 -10 -11 -8 -16 -19 -12 -24 10 -9 39 26 31 38 -7 12 -31 11 -38 0z"/> <path d="M850 1100 c0 -5 5 -10 11 -10 5 0 7 5 4 10 -3 6 -8 10 -11 10 -2 0 -4 -4 -4 -10z"/> <path d="M1430 1090 c0 -5 7 -7 15 -4 8 4 15 8 15 10 0 2 -7 4 -15 4 -8 0 -15 -4 -15 -10z"/> <path d="M1250 1076 c0 -7 -7 -19 -16 -27 -13 -10 -19 -10 -36 0 -16 10 -19 10 -16 -1 3 -8 24 -14 51 -16 40 -3 47 0 46 15 0 10 -3 13 -6 6 -2 -7 -11 -13 -20 -13 -12 0 -12 2 1 16 18 18 21 34 6 34 -5 0 -10 -6 -10 -14z"/> <path d="M1121 1064 c0 -11 3 -14 6 -6 3 7 2 16 -1 19 -3 4 -6 -2 -5 -13z"/> <path d="M610 1066 c0 -2 7 -7 16 -10 8 -3 12 -2 9 4 -6 10 -25 14 -25 6z"/> <path d="M740 1066 c0 -2 8 -10 18 -17 15 -13 16 -12 3 4 -13 16 -21 21 -21 13z"/> <path d="M476 1049 c4 -7 0 -9 -13 -5 -12 4 -20 2 -20 -6 0 -8 16 -13 44 -14 34 -1 43 2 43 15 0 13 -2 14 -9 2 -8 -12 -12 -12 -26 2 -19 19 -30 22 -19 6z"/> <path d="M594 1051 c4 -6 2 -11 -4 -11 -6 0 -8 -5 -4 -11 4 -7 10 -7 16 -1 6 6 18 8 27 5 21 -8 12 1 -18 17 -15 8 -21 8 -17 1z"/> <path d="M545 1030 c3 -5 10 -10 16 -10 5 0 9 5 9 10 0 6 -7 10 -16 10 -8 0 -12 -4 -9 -10z"/> <path d="M951 1024 c0 -11 3 -14 6 -6 3 7 2 16 -1 19 -3 4 -6 -2 -5 -13z"/> <path d="M1450 1021 c0 -12 5 -21 10 -21 6 0 10 6 10 14 0 8 -4 18 -10 21 -5 3 -10 -3 -10 -14z"/> <path d="M1179 1017 c5 -5 30 -7 57 -5 l49 3 -57 5 c-31 3 -53 1 -49 -3z"/> <path d="M468 1013 c7 -3 16 -2 19 1 4 3 -2 6 -13 5 -11 0 -14 -3 -6 -6z"/> <path d="M580 1010 l-55 -7 52 -1 c28 -1 55 3 58 8 3 6 5 9 3 8 -2 -1 -28 -4 -58 -8z"/> <path d="M558 963 c7 -3 16 -2 19 1 4 3 -2 6 -13 5 -11 0 -14 -3 -6 -6z"/> <path d="M281 881 c-17 -24 -21 -44 -21 -111 0 -95 15 -133 61 -149 32 -11 89 4 103 28 5 8 15 5 33 -9 30 -23 71 -26 98 -6 16 11 22 11 46 -3 24 -13 32 -14 50 -3 13 8 25 10 32 4 7 -5 38 -10 70 -10 46 0 60 4 71 20 10 13 16 16 21 8 4 -7 23 -19 42 -27 32 -13 38 -12 79 8 42 20 46 20 63 5 23 -20 70 -21 99 0 21 15 25 15 42 -1 10 -9 29 -16 42 -15 63 6 85 0 96 -25 10 -21 9 -27 -7 -37 -15 -9 -17 -17 -10 -42 6 -19 5 -32 -1 -36 -6 -4 59 -7 144 -7 l154 0 -2 38 c-1 22 -8 45 -15 52 -11 10 -12 9 -5 -3 11 -19 13 -80 3 -80 -4 0 -13 8 -18 17 -10 17 -10 17 -11 1 0 -10 -7 -18 -15 -18 -11 0 -15 12 -15 44 0 38 3 45 23 49 12 2 3 4 -21 4 -51 1 -58 6 -38 26 8 8 12 17 9 21 -3 3 8 1 26 -4 20 -5 31 -5 31 1 0 6 9 8 20 4 11 -3 27 -2 37 3 11 7 23 6 33 -1 9 -5 29 -7 43 -3 24 6 27 12 28 51 2 64 2 63 27 80 24 18 29 57 10 72 -20 15 -101 14 -118 -2 -13 -12 -19 -11 -39 5 -22 16 -29 16 -63 4 -23 -8 -40 -9 -43 -3 -10 15 -108 11 -133 -7 -21 -14 -25 -14 -40 -1 -23 20 -126 21 -143 1 -9 -12 -14 -11 -32 1 -28 20 -81 19 -97 0 -12 -14 -15 -11 -26 22 -7 21 -21 43 -31 50 -18 14 -91 17 -110 5 -12 -7 -44 -75 -40 -83 1 -2 -3 1 -9 8 -13 14 -114 15 -131 1 -14 -11 -16 -7 -13 34 2 35 -28 53 -63 37 -22 -10 -24 -15 -17 -40 5 -17 5 -31 -1 -35 -5 -3 -6 -10 -3 -16 4 -6 -7 0 -24 12 -24 18 -39 22 -68 17 -21 -4 -41 -12 -46 -19 -5 -9 -8 -4 -8 13 0 15 -9 38 -21 53 -17 22 -28 26 -69 26 -42 0 -51 -4 -69 -29z m131 -14 c4 -7 8 -24 8 -39 0 -23 -4 -28 -25 -28 -20 0 -25 5 -25 23 0 29 -7 37 -26 30 -20 -7 -20 -169 0 -176 19 -7 26 1 26 30 0 18 5 23 25 23 21 0 25 -5 25 -28 0 -57 -77 -86 -121 -46 -27 24 -28 193 -1 216 32 29 94 26 114 -5z m561 1 c9 -11 17 -31 17 -44 0 -20 -5 -24 -31 -24 -26 0 -30 3 -26 19 6 24 -7 46 -22 37 -12 -8 -16 -168 -4 -179 11 -12 31 13 26 33 -4 17 0 20 26 20 26 0 31 -4 31 -24 0 -61 -79 -92 -123 -48 -17 18 -21 34 -21 94 -1 96 7 124 41 136 35 13 63 6 86 -20z m-323 2 c0 -15 -7 -20 -25 -20 -18 0 -25 5 -25 20 0 15 7 20 25 20 18 0 25 -5 25 -20z m814 -55 c3 -9 0 -15 -10 -15 -10 0 -13 -7 -8 -25 10 -40 -19 -75 -62 -75 -21 0 -33 -4 -29 -10 3 -5 20 -10 37 -10 56 0 87 -50 52 -84 -21 -21 -97 -21 -115 0 -10 13 -10 20 0 36 9 15 9 23 1 33 -8 10 -8 20 -2 31 6 11 7 27 1 42 -6 16 -5 33 4 50 10 23 19 27 55 28 23 0 45 4 49 7 10 11 20 8 27 -8z m-910 -11 c11 -10 16 -34 16 -70 0 -76 -11 -94 -60 -94 -49 0 -60 18 -60 94 0 63 16 86 60 86 16 0 36 -7 44 -16z m96 -74 c0 -89 0 -90 -25 -90 -25 0 -25 1 -25 90 0 89 0 90 25 90 25 0 25 -1 25 -90z m158 -2 l3 -88 -26 0 c-25 0 -25 1 -25 76 0 47 -4 73 -10 69 -5 -3 -10 -37 -10 -76 0 -67 -1 -69 -25 -69 -25 0 -25 1 -25 90 l0 90 58 -3 57 -2 3 -87z m314 75 c24 -21 26 -124 2 -147 -18 -19 -75 -21 -92 -4 -7 7 -12 40 -12 78 0 38 5 71 12 78 17 17 68 15 90 -5z m98 -58 c0 -43 4 -75 10 -75 6 0 10 32 10 75 0 73 1 75 25 75 25 0 25 -1 25 -90 l0 -90 -57 3 -58 2 -3 88 -3 87 26 0 c25 0 25 -1 25 -75z m370 56 c5 -11 10 -51 10 -90 0 -69 -1 -71 -26 -71 -15 0 -23 4 -19 11 4 6 -2 5 -14 -3 -26 -16 -54 -1 -59 31 -4 26 13 50 45 62 23 8 33 39 13 39 -5 0 -10 -4 -10 -10 0 -5 -11 -10 -25 -10 -29 0 -31 7 -9 38 20 29 79 31 94 3z m90 2 c1 -17 1 -17 11 0 15 25 39 21 39 -7 0 -18 -6 -25 -22 -28 -21 -3 -23 -9 -26 -65 -3 -59 -4 -63 -27 -63 -25 0 -25 1 -25 90 0 89 0 90 25 90 17 0 25 -6 25 -17z m-1248 -29 c-3 -17 -8 -22 -15 -15 -7 7 -6 15 3 26 17 20 18 19 12 -11z m-52 -6 c0 7 5 12 10 12 6 0 10 -7 10 -15 0 -9 -9 -15 -23 -15 -16 0 -23 6 -24 23 -2 21 -1 21 13 3 8 -11 14 -14 14 -8z m612 0 c-5 -21 -22 -24 -22 -5 0 8 -3 8 -8 1 -4 -6 -15 -13 -24 -17 -14 -5 -18 -1 -18 16 0 19 5 22 38 22 32 0 38 -3 34 -17z m471 -68 c-3 -12 -8 -19 -11 -16 -5 6 5 36 12 36 2 0 2 -9 -1 -20z m-103 -145 c0 -9 -7 -15 -17 -13 -26 5 -30 -32 -4 -39 26 -7 28 -23 3 -23 -40 0 -59 59 -24 79 25 15 42 13 42 -4z m80 8 c0 -3 -7 -14 -15 -23 -14 -15 -13 -19 5 -35 20 -18 20 -18 20 23 0 38 2 42 25 42 15 0 25 -6 25 -15 0 -9 -6 -12 -15 -9 -8 4 -15 1 -15 -5 0 -6 7 -11 15 -11 8 0 15 -5 15 -11 0 -6 -7 -9 -15 -5 -8 3 -15 1 -15 -4 0 -6 7 -10 15 -10 8 0 15 -4 15 -10 0 -17 -80 -12 -86 5 -4 8 -10 15 -15 15 -4 0 -6 -7 -3 -15 4 -9 0 -15 -10 -15 -12 0 -16 10 -16 40 0 29 4 40 15 40 9 0 12 -6 9 -17 -4 -13 0 -11 12 5 16 21 34 29 34 15z m-80 -43 c0 -5 -4 -10 -9 -10 -6 0 -13 5 -16 10 -3 6 1 10 9 10 9 0 16 -4 16 -10z"/> <path d="M1376 782 c-8 -13 0 -46 12 -50 8 -2 12 8 12 27 0 29 -13 41 -24 23z"/> <path d="M1364 639 c-9 -15 4 -26 28 -23 13 1 27 3 31 3 5 1 6 5 3 10 -8 12 -55 20 -62 10z"/> <path d="M500 730 c0 -33 4 -60 10 -60 6 0 10 27 10 60 0 33 -4 60 -10 60 -6 0 -10 -27 -10 -60z"/> <path d="M1068 780 c-6 -20 4 -110 13 -110 5 0 9 27 9 60 0 33 -4 60 -9 60 -5 0 -11 -4 -13 -10z"/> <path d="M1532 711 c-10 -16 -11 -26 -3 -34 15 -15 23 -3 19 30 l-3 28 -13 -24z"/> <path d="M425 576 c6 -2 22 -7 38 -10 15 -4 27 -13 27 -22 0 -12 5 -10 19 7 27 33 56 16 56 -32 0 -28 -4 -35 -23 -37 -13 -2 -30 2 -38 8 -10 9 -14 9 -14 1 0 -14 32 -20 101 -18 50 1 54 2 40 17 -12 12 -17 12 -19 3 -2 -7 -10 -13 -19 -13 -11 0 -13 7 -8 29 8 36 -28 76 -60 66 -23 -7 -27 -7 -75 0 -19 3 -30 3 -25 1z"/> <path d="M600 572 c36 -6 52 -22 46 -47 -6 -25 25 -60 46 -52 8 4 7 6 -4 6 -13 1 -18 9 -18 30 0 17 -4 33 -10 36 -20 12 -9 25 20 25 20 0 30 -5 30 -15 0 -8 -4 -15 -9 -15 -4 0 -6 -11 -3 -25 2 -14 7 -23 11 -20 6 6 7 11 9 52 2 16 10 23 30 25 15 2 -18 4 -73 4 -55 0 -89 -2 -75 -4z"/> <path d="M790 560 c-12 -12 -25 -18 -30 -15 -5 3 -11 1 -15 -5 -3 -5 1 -10 9 -10 22 0 20 -17 -1 -23 -17 -4 -17 -5 0 -6 10 0 25 -7 32 -15 10 -9 40 -13 97 -13 46 0 76 1 67 4 -10 2 -16 16 -17 40 -2 44 -12 57 -13 17 -2 -28 -2 -28 -8 5 -3 19 -12 36 -19 37 -7 1 -8 0 -2 -3 5 -2 10 -20 10 -39 0 -19 5 -34 10 -34 6 0 10 -4 10 -10 0 -5 -11 -10 -25 -10 -19 0 -25 5 -26 23 0 15 -2 17 -6 7 -13 -35 -57 -40 -73 -10 -26 49 28 92 62 50 10 -12 18 -17 18 -10 0 15 -29 39 -47 40 -7 0 -22 -9 -33 -20z"/> <path d="M978 563 c-26 -31 -28 -62 -5 -78 12 -8 29 -15 39 -15 24 0 48 28 47 53 -1 21 -1 21 -8 -2 -15 -55 -76 -52 -76 4 0 38 27 55 57 36 21 -13 22 -13 9 2 -18 22 -44 22 -63 0z"/> <path d="M1074 565 c-4 -9 -2 -21 4 -28 6 -6 12 -23 14 -36 1 -14 9 -26 16 -27 7 -1 8 0 2 3 -5 2 -10 20 -10 39 0 21 -4 33 -10 29 -5 -3 -10 1 -10 9 0 11 10 16 30 16 29 0 30 -1 24 -38 -4 -28 -2 -41 10 -51 9 -8 19 -11 23 -7 3 3 1 6 -5 6 -7 0 -12 17 -12 45 0 37 3 45 19 45 21 0 43 -22 40 -42 -7 -51 16 -45 26 8 5 29 10 35 26 31 10 -3 17 -1 13 4 -8 14 -34 11 -40 -6 -5 -12 -9 -12 -27 -1 -31 20 -126 20 -133 1z"/> <path d="M414 518 c1 -33 5 -43 19 -44 11 -1 12 0 3 3 -9 2 -17 21 -19 44 l-4 39 1 -42z"/> <path d="M450 534 c0 -8 5 -12 10 -9 6 4 8 11 5 16 -9 14 -15 11 -15 -7z"/> <path d="M522 538 c-13 -13 -4 -38 14 -38 15 0 19 35 6 44 -5 3 -14 0 -20 -6z m18 -18 c0 -5 -2 -10 -4 -10 -3 0 -8 5 -11 10 -3 6 -1 10 4 10 6 0 11 -4 11 -10z"/> <path d="M610 540 c0 -5 5 -10 11 -10 5 0 7 5 4 10 -3 6 -8 10 -11 10 -2 0 -4 -4 -4 -10z"/> <path d="M815 540 c-3 -5 -1 -10 4 -10 6 0 11 -5 11 -11 0 -5 -4 -7 -10 -4 -5 3 -10 1 -10 -4 0 -6 7 -11 15 -11 8 0 15 9 15 19 0 23 -16 36 -25 21z"/> <path d="M1170 540 c0 -5 5 -10 11 -10 5 0 7 5 4 10 -3 6 -8 10 -11 10 -2 0 -4 -4 -4 -10z"/> <path d="M1540 540 c0 -5 5 -10 11 -10 5 0 7 5 4 10 -3 6 -8 10 -11 10 -2 0 -4 -4 -4 -10z"/> <path d="M992 523 c2 -10 10 -18 18 -18 8 0 16 8 18 18 2 12 -3 17 -18 17 -15 0 -20 -5 -18 -17z m28 -3 c0 -5 -4 -10 -10 -10 -5 0 -10 5 -10 10 0 6 5 10 10 10 6 0 10 -4 10 -10z"/> <path d="M1250 526 c0 -9 5 -16 10 -16 6 0 10 4 10 9 0 6 -4 13 -10 16 -5 3 -10 -1 -10 -9z"/> <path d="M468 513 c-10 -2 -18 -9 -18 -14 0 -6 8 -5 20 1 11 6 20 13 20 15 0 3 -1 4 -2 4 -2 -1 -11 -3 -20 -6z"/> <path d="M1170 501 c0 -5 7 -14 15 -21 17 -14 85 -5 85 10 0 13 -17 13 -25 0 -10 -16 -55 -12 -55 5 0 8 -4 15 -10 15 -5 0 -10 -4 -10 -9z"/> <path d="M728 473 c7 -3 16 -2 19 1 4 3 -2 6 -13 5 -11 0 -14 -3 -6 -6z"/> </g> </svg> 